<?xml version="1.0" standalone="no"?>
<!DOCTYPE svg PUBLIC "-//W3C//DTD SVG 1.1//EN" "http://www.w3.org/Graphics/SVG/1.1/DTD/svg11.dtd">
<svg
  version="1.1"
  xmlns="http://www.w3.org/2000/svg"
  viewBox="0 0 184.45073566362214 101.77693905151114"
  width="368.9014713272443"
  height="203.55387810302227"
  stroke="#868e96"
>
  <g stroke-linecap="round">
    <g transform="translate(172.1457259934391 93.05514964489862) rotate(0 -81.50000155530847 -42.02677873350606)">
      <path
        d="M2.31 -1.28 C2.17 -6.93, 3.08 -21.34, -1.61 -31.74 C-6.3 -42.14, -14.52 -58.18, -25.83 -63.68 C-37.13 -69.17, -61.09 -71.35, -69.45 -64.71 C-77.8 -58.07, -80.94 -31.62, -75.95 -23.84 C-70.96 -16.05, -47.53 -13.25, -39.51 -18 C-31.49 -22.75, -23.93 -42.48, -27.83 -52.33 C-31.73 -62.18, -50.17 -72, -62.9 -77.09 C-75.63 -82.19, -87.68 -82.28, -104.22 -82.92 C-120.76 -83.56, -152.09 -81.78, -162.15 -80.92"
        stroke-width="1.5"
        fill="none"
        stroke-dasharray="8 9"
      ></path>
    </g>
    <g transform="translate(172.1457259934391 93.05514964489862) rotate(0 -81.50000155530847 -42.02677873350606)">
      <path
        d="M-140.2 -90.82 C-144.12 -87.86, -149.69 -83.93, -162.04 -80.22"
        stroke-width="1.5"
        fill="none"
      ></path>
    </g>
    <g transform="translate(172.1457259934391 93.05514964489862) rotate(0 -81.50000155530847 -42.02677873350606)">
      <path
        d="M-139.04 -73.76 C-143.41 -75.4, -149.29 -76.09, -162.04 -80.22"
        stroke-width="1.5"
        fill="none"
      ></path>
    </g>
  </g>
</svg>
