<?xml version="1.0" standalone="no"?>
<!DOCTYPE svg PUBLIC "-//W3C//DTD SVG 1.1//EN" "http://www.w3.org/Graphics/SVG/1.1/DTD/svg11.dtd">
<svg version="1.1" xmlns="http://www.w3.org/2000/svg" viewBox="0 0 128.80797473089729 61.9777874427794" width="257.61594946179457" height="123.9555748855588" stroke="#1e1e1e" >
    <g stroke-linecap="round">
        <g transform="translate(117.98577503422234 52.376229246607295) rotate(0 -54.03515780530847 -20.499434983506063)">
            <path d="M0.82 -0.4 C-4.21 -7.43, -12.33 -37.61, -30.39 -41.75 C-48.44 -45.89, -94.63 -28.2, -107.51 -25.25 M-0.21 -1.65 C-5.35 -8.59, -13.15 -36.82, -31.12 -40.61 C-49.08 -44.4, -95.3 -27.37, -107.99 -24.4" stroke-width="1" fill="none"></path>
        </g>
        <g transform="translate(117.98577503422234 52.376229246607295) rotate(0 -54.03515780530847 -20.499434983506063)">
            <path d="M-87.85 -39.23 C-94.23 -34.15, -100.58 -29.67, -107.99 -24.4 M-87.85 -39.23 C-92.39 -36.15, -96.44 -32.63, -107.99 -24.4" stroke-width="1" fill="none"></path>
        </g>
        <g transform="translate(117.98577503422234 52.376229246607295) rotate(0 -54.03515780530847 -20.499434983506063)">
            <path d="M-83.04 -22.82 C-90.85 -22.41, -98.58 -22.63, -107.99 -24.4 M-83.04 -22.82 C-88.71 -23.43, -93.85 -23.62, -107.99 -24.4" stroke-width="1" fill="none"></path>
        </g>
    </g>
</svg>